<svg width="20" height="20" viewBox="0 0 20 20" fill="none" xmlns="http://www.w3.org/2000/svg">
<path fill-rule="evenodd" clip-rule="evenodd" d="M16.6667 10H3.33341C2.41258 10 1.66675 10.7458 1.66675 11.6667V14.1108C1.66675 14.5708 2.04008 14.9442 2.50008 14.9442H17.5001C17.9601 14.9442 18.3334 14.5708 18.3334 14.1108V11.6667C18.3334 10.7458 17.5876 10 16.6667 10Z" stroke="#0F1114" stroke-width="1.25" stroke-linecap="round" stroke-linejoin="round"/>
<path d="M3.33325 9.99984V5.77734C3.33325 4.39651 4.45242 3.27734 5.83325 3.27734H14.1666C15.5474 3.27734 16.6666 4.39651 16.6666 5.77734V9.99984" stroke="#0F1114" stroke-width="1.25" stroke-linecap="round" stroke-linejoin="round"/>
<path d="M17.4999 15V16.6083" stroke="#0F1114" stroke-width="1.25" stroke-linecap="round" stroke-linejoin="round"/>
<path d="M2.49992 15V16.6083" stroke="#0F1114" stroke-width="1.25" stroke-linecap="round" stroke-linejoin="round"/>
<path d="M6.25 10V10C6.25 8.61917 7.36917 7.5 8.75 7.5H11.25C12.6308 7.5 13.75 8.61917 13.75 10V10" stroke="#0F1114" stroke-width="1.25" stroke-linecap="round" stroke-linejoin="round"/>
</svg>
